 <svg  version="1.0" xmlns="http://www.w3.org/2000/svg"  width="348.000000pt" height="348.000000pt" viewBox="0 0 348.000000 348.000000"  preserveAspectRatio="xMidYMid meet">  <g transform="translate(0.000000,348.000000) scale(0.100000,-0.100000)" fill="#4a69e3" stroke="none"> <path d="M2551 2594 c-140 -222 -258 -401 -261 -397 -4 5 -18 50 -30 101 -12 51 -25 90 -28 87 -9 -8 -202 -578 -198 -583 2 -1 95 40 207 93 111 52 204 94 205 92 2 -2 4 -45 5 -96 1 -89 2 -92 23 -87 11 3 204 79 428 169 l408 164 -53 7 c-28 3 -117 6 -197 6 -80 0 -161 3 -181 6 l-36 6 151 217 c84 119 156 223 160 230 8 12 -80 -33 -359 -183 -69 -37 -121 -59 -122 -53 -2 7 28 149 66 317 38 168 68 306 67 307 -1 1 -116 -180 -255 -403z"/> <path d="M1320 2739 c-58 -27 -105 -55 -104 -61 1 -7 25 -91 54 -186 31 -101 49 -177 44 -182 -5 -5 -274 -128 -598 -274 -324 -146 -591 -267 -593 -270 -5 -5 64 -165 77 -180 5 -4 274 112 599 258 325 146 596 267 603 269 6 1 55 -70 110 -158 54 -88 103 -161 108 -163 5 -2 82 29 171 69 155 70 160 73 154 98 -3 14 -36 124 -72 243 l-66 218 -81 77 c-45 42 -130 125 -191 184 l-110 106 -105 -48z"/> <path d="M1340 1600 l0 -70 -300 0 c-165 0 -300 -3 -300 -6 0 -16 66 -126 111 -187 93 -124 278 -251 426 -294 l63 -18 0 -112 0 -113 201 -2 200 -3 -41 -82 c-55 -110 -142 -227 -258 -346 l-96 -97 -88 0 -88 0 0 -65 0 -65 964 0 964 0 4 65 3 65 -94 0 -94 0 -56 47 c-141 119 -237 235 -312 376 -27 51 -49 95 -49 100 0 4 97 7 215 7 l215 0 0 98 1 97 107 52 c97 47 281 173 289 198 5 16 -134 114 -220 156 -42 20 -100 43 -127 50 l-50 13 0 103 0 103 -795 0 -795 0 0 -70z"/> </g> </svg> 